<svg width="690" height="210" viewBox="0 0 690 210" fill="none" xmlns="http://www.w3.org/2000/svg">
<path fill-rule="evenodd" clip-rule="evenodd" d="M210 105C210 47.0101 162.99 0 105 0C47.0101 0 0 47.0101 0 105C0 162.99 47.0101 210 105 210C162.99 210 210 162.99 210 105ZM14.3472 100.172C14.3472 45.6967 50.5246 6.36364 105 6.36364C130.842 6.36364 154.362 16.3011 171.949 32.5631C191.435 50.5822 190.897 74.7727 180.583 105C176.962 115.61 174.276 125.659 171.8 134.92C162.382 170.147 156.01 193.981 112.875 193.981C95.9179 193.981 85.1257 183.722 73.8974 173.048C69.9063 169.254 65.8602 165.408 61.4625 161.952C57.9566 159.196 54.4236 156.576 50.9534 154.003C31.6815 139.712 14.3472 126.858 14.3472 100.172ZM154.32 105.002L105.002 55.6833L55.6833 105.002L105.002 154.32L154.32 105.002Z" fill="url(#paint0_linear_2_13)"/>
<path d="M690 44V165.999H659V44H690Z" fill="#161C27"/>
<path d="M571.784 44C597.601 44 619 64.6834 619 90.5C619 107.878 609.047 123.286 594.973 131.342L594.461 131.631L594.923 132.13C603.51 141.542 609.737 153.144 612.667 166L580.46 166C573.882 149.513 560.933 137.006 541.195 137.006L540.447 137H533V107H571.784C581.1 107 589 99.8157 589 90.5C589 81.2914 581.273 74.1709 572.105 74H571.784H514V44H571.784Z" fill="#161C27"/>
<path d="M474 44V165.999H443V44H474Z" fill="#161C27"/>
<path d="M336.5 44C319.775 44 304.734 54.1821 298.522 69.7106L260 166H290L323.221 82.8813C328.014 70.891 344.986 70.891 349.778 82.8813L383 166H413L374.478 69.7106C368.265 54.1821 353.225 44 336.5 44Z" fill="#161C27"/>
<defs>
<linearGradient id="paint0_linear_2_13" x1="0" y1="0" x2="210" y2="210" gradientUnits="userSpaceOnUse">
<stop stop-color="#3DEBCB"/>
<stop offset="1" stop-color="#005A60"/>
</linearGradient>
</defs>
</svg>
