<?xml version="1.0" standalone="no"?>
<!DOCTYPE svg PUBLIC "-//W3C//DTD SVG 20010904//EN"
 "http://www.w3.org/TR/2001/REC-SVG-20010904/DTD/svg10.dtd">
<svg version="1.0" xmlns="http://www.w3.org/2000/svg"
 width="215.000000pt" height="215.000000pt" viewBox="0 0 215.000000 215.000000"
 preserveAspectRatio="xMidYMid meet">
<metadata>
Created by potrace 1.11, written by Peter Selinger 2001-2013
</metadata>
<g transform="translate(0.000000,215.000000) scale(0.100000,-0.100000)"
fill="#000000" stroke="none">
<path d="M1592 1913 c1 -5 -6 -35 -17 -68 -10 -33 -19 -64 -20 -70 -2 -5 -19
-66 -40 -135 -21 -69 -38 -130 -39 -137 -1 -7 -5 -16 -9 -19 -4 -4 -7 -13 -7
-21 0 -7 -23 -51 -50 -97 -50 -83 -51 -84 -45 -147 4 -35 10 -79 15 -97 7 -28
4 -38 -30 -80 -21 -27 -44 -49 -51 -49 -8 0 -25 -3 -39 -6 -105 -23 -128 -27
-150 -31 -14 -3 -25 -5 -25 -6 0 -1 -13 -3 -29 -5 -22 -3 -47 10 -120 64 -50
37 -96 71 -103 75 -7 3 -40 -3 -75 -15 -63 -21 -135 -36 -218 -46 -93 -11 -68
-20 58 -21 71 -1 142 -6 158 -13 16 -6 54 -12 85 -15 31 -2 65 -7 75 -11 69
-28 308 -177 403 -252 97 -76 121 -90 165 -97 77 -11 77 -11 141 -34 32 -11
70 -22 83 -25 33 -6 40 -12 188 -161 148 -149 261 -234 203 -153 -12 17 -40
39 -63 49 -31 13 -59 39 -106 101 -67 86 -107 129 -154 165 -20 14 -29 32 -32
60 -3 21 -6 46 -7 55 -1 8 22 52 51 97 29 45 51 85 49 89 -3 5 -8 41 -11 81
-4 40 -9 79 -12 85 -2 7 32 70 77 140 l81 127 -20 32 c-37 62 -71 126 -67 130
1 1 6 37 9 79 l6 77 -55 73 c-87 114 -265 278 -253 232z"/>
<path d="M571 713 c-38 -20 -51 -42 -51 -85 0 -54 21 -80 89 -113 43 -20 61
-35 66 -53 6 -26 -6 -40 -35 -43 -51 -5 -67 -4 -87 8 -19 11 -22 10 -32 -19
-6 -17 -9 -33 -7 -35 11 -11 71 -21 115 -19 57 4 98 26 111 62 26 66 3 109
-80 154 -45 24 -66 42 -68 57 -5 35 44 49 105 29 18 -6 25 -2 35 19 13 29 2
43 -37 46 -75 5 -100 3 -124 -8z"/>
<path d="M97 638 c-16 -46 -30 -87 -31 -93 -2 -5 -6 -17 -9 -25 -3 -8 -14 -40
-25 -70 -11 -30 -24 -63 -27 -73 -7 -16 -3 -18 30 -15 34 3 40 7 50 38 11 34
14 35 66 38 50 2 55 1 67 -25 6 -15 12 -33 12 -40 0 -9 14 -13 41 -13 35 0 40
3 34 18 -4 9 -16 42 -26 72 -11 30 -22 62 -26 70 -3 8 -7 20 -9 25 -1 6 -16
46 -32 90 -26 73 -31 80 -58 83 -28 2 -30 0 -57 -80z m73 -65 c18 -77 18 -76
-18 -77 -17 0 -32 3 -32 8 0 11 33 116 36 116 1 0 7 -21 14 -47z"/>
<path d="M368 708 c-2 -7 -3 -87 -3 -178 l1 -165 35 -3 35 -3 0 181 0 180 -32
0 c-17 0 -34 -6 -36 -12z"/>
<path d="M790 690 c0 -32 3 -33 62 -31 46 1 46 0 44 -157 -1 -67 1 -127 5
-133 3 -6 19 -9 35 -7 l29 3 0 145 1 145 39 1 c22 1 46 2 53 3 6 0 12 14 12
31 l0 30 -140 0 -140 0 0 -30z"/>
</g>
</svg>
